<?xml version="1.0" encoding="UTF-8"?>
<svg width="92px" height="92px" viewBox="0 0 92 92" version="1.1" xmlns="http://www.w3.org/2000/svg" xmlns:xlink="http://www.w3.org/1999/xlink">
    <!-- Generator: Sketch 45.2 (43514) - http://www.bohemiancoding.com/sketch -->
    <title>atom / button / btn-esc-dark</title>
    <desc>Created with Sketch.</desc>
    <defs></defs>
    <g id="Symbols" stroke="none" stroke-width="1" fill="none" fill-rule="evenodd">
        <g id="atom-/-button-/-btn-esc-dark">
            <g>
                <rect id="Rectangle" stroke="#0456FD" stroke-width="0.5" fill-opacity="0.2" fill="#0456FD" opacity="0" x="0" y="0" width="92" height="92"></rect>
                <g id="icon-esc" transform="translate(17.000000, 4.000000)">
                    <g id="close">
                        <rect id="Rectangle-path" x="0" y="0" width="58" height="58"></rect>
                        <path d="M15.3292349,13.6203935 C14.8573701,13.1485287 14.0956009,13.1452541 13.6204275,13.6204275 C13.1485439,14.092311 13.1545195,14.8633609 13.6203935,15.3292349 L27.2911586,29 L13.6203935,42.6707651 C13.1485287,43.1426299 13.1452541,43.9043991 13.6204275,44.3795725 C14.092311,44.8514561 14.8633609,44.8454805 15.3292349,44.3796065 L29,30.7088414 L42.6707651,44.3796065 C43.1426299,44.8514713 43.9043991,44.8547459 44.3795725,44.3795725 C44.8514561,43.907689 44.8454805,43.1366391 44.3796065,42.6707651 L30.7088414,29 L44.3796065,15.3292349 C44.8514713,14.8573701 44.8547459,14.0956009 44.3795725,13.6204275 C43.907689,13.1485439 43.1366391,13.1545195 42.6707651,13.6203935 L29,27.2911586 L15.3292349,13.6203935 Z" id="Shape" fill="#A3A3A3" fill-rule="nonzero"></path>
                    </g>
                    <text id="ESC" font-family="OpenSans, Open Sans" font-size="24" font-weight="normal" letter-spacing="-0.949999988" fill="#C1C6CB">
                        <tspan x="9.5" y="77">ESC</tspan>
                    </text>
                </g>
            </g>
        </g>
    </g>
</svg>