<?xml version="1.0" encoding="UTF-8"?>
<svg width="49px" height="9px" viewBox="0 0 49 9" version="1.1" xmlns="http://www.w3.org/2000/svg" xmlns:xlink="http://www.w3.org/1999/xlink">
    <!-- Generator: Sketch 45.2 (43514) - http://www.bohemiancoding.com/sketch -->
    <title>atom / elements / controls / control-rating-3</title>
    <desc>Created with Sketch.</desc>
    <defs></defs>
    <g id="Symbols" stroke="none" stroke-width="1" fill="none" fill-rule="evenodd">
        <g id="atom-/-elements-/-controls-/-control-rating-3">
            <rect id="container" fill="#D8D8D8" opacity="0" x="0" y="0" width="49" height="9"></rect>
            <g id="element-rating-4" transform="translate(1.000000, 1.000000)">
                <path d="M7.9781165,2.87059038 C7.92567345,2.70970576 7.78701046,2.59237555 7.61901493,2.56837619 L5.3932963,2.24482923 L4.39865607,0.227993941 C4.24932671,-0.0759979802 3.75067329,-0.0759979802 3.60134393,0.227993941 L2.6067037,2.24482923 L0.380985071,2.56837619 C0.212989535,2.59237555 0.0743265539,2.70970576 0.0218835032,2.87059038 C-0.0305595475,3.03147499 0.0129948505,3.20747031 0.133880527,3.32568939 L1.74450439,4.89542545 L1.36495892,7.11225542 C1.33562637,7.27847323 1.40406899,7.44735763 1.54095424,7.54691054 C1.67872836,7.64735231 1.86094574,7.65979643 2.00938624,7.58068742 L3.99955557,6.534493 L5.99061376,7.58068742 C6.05550093,7.6144643 6.12661015,7.63135274 6.19771937,7.63135274 C6.28927249,7.63135274 6.38171448,7.60290905 6.45904576,7.54691054 C6.59504214,7.44735763 6.66348477,7.27847323 6.63504108,7.11225542 L6.25549561,4.89542545 L7.86611947,3.32568939 C7.98700515,3.20747031 8.03055955,3.03147499 7.9781165,2.87059038" id="Star-Icon" fill="#63DBC2"></path>
                <path d="M17.9781165,2.87059038 C17.9256734,2.70970576 17.7870105,2.59237555 17.6190149,2.56837619 L15.3932963,2.24482923 L14.3986561,0.227993941 C14.2493267,-0.0759979802 13.7506733,-0.0759979802 13.6013439,0.227993941 L12.6067037,2.24482923 L10.3809851,2.56837619 C10.2129895,2.59237555 10.0743266,2.70970576 10.0218835,2.87059038 C9.96944045,3.03147499 10.0129949,3.20747031 10.1338805,3.32568939 L11.7445044,4.89542545 L11.3649589,7.11225542 C11.3356264,7.27847323 11.404069,7.44735763 11.5409542,7.54691054 C11.6787284,7.64735231 11.8609457,7.65979643 12.0093862,7.58068742 L13.9995556,6.534493 L15.9906138,7.58068742 C16.0555009,7.6144643 16.1266101,7.63135274 16.1977194,7.63135274 C16.2892725,7.63135274 16.3817145,7.60290905 16.4590458,7.54691054 C16.5950421,7.44735763 16.6634848,7.27847323 16.6350411,7.11225542 L16.2554956,4.89542545 L17.8661195,3.32568939 C17.9870051,3.20747031 18.0305595,3.03147499 17.9781165,2.87059038" id="Star-Icon" fill="#63DBC2"></path>
                <path d="M27.9781165,2.87059038 C27.9256734,2.70970576 27.7870105,2.59237555 27.6190149,2.56837619 L25.3932963,2.24482923 L24.3986561,0.227993941 C24.2493267,-0.0759979802 23.7506733,-0.0759979802 23.6013439,0.227993941 L22.6067037,2.24482923 L20.3809851,2.56837619 C20.2129895,2.59237555 20.0743266,2.70970576 20.0218835,2.87059038 C19.9694405,3.03147499 20.0129949,3.20747031 20.1338805,3.32568939 L21.7445044,4.89542545 L21.3649589,7.11225542 C21.3356264,7.27847323 21.404069,7.44735763 21.5409542,7.54691054 C21.6787284,7.64735231 21.8609457,7.65979643 22.0093862,7.58068742 L23.9995556,6.534493 L25.9906138,7.58068742 C26.0555009,7.6144643 26.1266101,7.63135274 26.1977194,7.63135274 C26.2892725,7.63135274 26.3817145,7.60290905 26.4590458,7.54691054 C26.5950421,7.44735763 26.6634848,7.27847323 26.6350411,7.11225542 L26.2554956,4.89542545 L27.8661195,3.32568939 C27.9870051,3.20747031 28.0305595,3.03147499 27.9781165,2.87059038" id="Star-Icon" fill="#63DBC2"></path>
                <path d="M37.9781165,2.87059038 C37.9256734,2.70970576 37.7870105,2.59237555 37.6190149,2.56837619 L35.3932963,2.24482923 L34.3986561,0.227993941 C34.2493267,-0.0759979802 33.7506733,-0.0759979802 33.6013439,0.227993941 L32.6067037,2.24482923 L30.3809851,2.56837619 C30.2129895,2.59237555 30.0743266,2.70970576 30.0218835,2.87059038 C29.9694405,3.03147499 30.0129949,3.20747031 30.1338805,3.32568939 L31.7445044,4.89542545 L31.3649589,7.11225542 C31.3356264,7.27847323 31.404069,7.44735763 31.5409542,7.54691054 C31.6787284,7.64735231 31.8609457,7.65979643 32.0093862,7.58068742 L33.9995556,6.534493 L35.9906138,7.58068742 C36.0555009,7.6144643 36.1266101,7.63135274 36.1977194,7.63135274 C36.2892725,7.63135274 36.3817145,7.60290905 36.4590458,7.54691054 C36.5950421,7.44735763 36.6634848,7.27847323 36.6350411,7.11225542 L36.2554956,4.89542545 L37.8661195,3.32568939 C37.9870051,3.20747031 38.0305595,3.03147499 37.9781165,2.87059038" id="Star-Icon" fill="#BDC3C7"></path>
                <path d="M47.9781165,2.87059038 C47.9256734,2.70970576 47.7870105,2.59237555 47.6190149,2.56837619 L45.3932963,2.24482923 L44.3986561,0.227993941 C44.2493267,-0.0759979802 43.7506733,-0.0759979802 43.6013439,0.227993941 L42.6067037,2.24482923 L40.3809851,2.56837619 C40.2129895,2.59237555 40.0743266,2.70970576 40.0218835,2.87059038 C39.9694405,3.03147499 40.0129949,3.20747031 40.1338805,3.32568939 L41.7445044,4.89542545 L41.3649589,7.11225542 C41.3356264,7.27847323 41.404069,7.44735763 41.5409542,7.54691054 C41.6787284,7.64735231 41.8609457,7.65979643 42.0093862,7.58068742 L43.9995556,6.534493 L45.9906138,7.58068742 C46.0555009,7.6144643 46.1266101,7.63135274 46.1977194,7.63135274 C46.2892725,7.63135274 46.3817145,7.60290905 46.4590458,7.54691054 C46.5950421,7.44735763 46.6634848,7.27847323 46.6350411,7.11225542 L46.2554956,4.89542545 L47.8661195,3.32568939 C47.9870051,3.20747031 48.0305595,3.03147499 47.9781165,2.87059038" id="Star-Icon" fill="#BDC3C7"></path>
            </g>
        </g>
    </g>
</svg>