<?xml version="1.0" encoding="UTF-8"?>
<svg width="41px" height="41px" viewBox="0 0 41 41" version="1.1" xmlns="http://www.w3.org/2000/svg" xmlns:xlink="http://www.w3.org/1999/xlink">
    <!-- Generator: Sketch 45.2 (43514) - http://www.bohemiancoding.com/sketch -->
    <title>atom / icons / icon-socialorb-twitter</title>
    <desc>Created with Sketch.</desc>
    <defs>
        <rect id="path-1" x="0" y="0" width="41" height="41"></rect>
    </defs>
    <g id="Symbols" stroke="none" stroke-width="1" fill="none" fill-rule="evenodd">
        <g id="atom-/-icons-/-icon-socialorb-twitter">
            <g id="atom-/-icons-/-icon-twitter">
                <g id="icon-container" opacity="0">
                    <use fill-opacity="0.3" fill="#0456FD" fill-rule="evenodd" xlink:href="#path-1"></use>
                    <rect stroke="#0456FD" stroke-width="1" x="0.5" y="0.5" width="40" height="40"></rect>
                </g>
                <g id="icon-twitter" transform="translate(3.000000, 3.000000)">
                    <path d="M0,17.5 C0,7.8350164 7.8350164,0 17.5,0 C27.1649836,0 35,7.8350164 35,17.5 C35,27.1649836 27.1649836,35 17.5,35 C7.8350164,35 0,27.1649836 0,17.5 Z" id="back" fill="#55ACEE"></path>
                    <path d="M16.9758769,14.2242192 L17.0125996,14.8297587 L16.4005552,14.755611 C14.1727135,14.4713782 12.2264123,13.5074582 10.5738924,11.8885669 L9.76599373,11.0853003 L9.55789863,11.6784818 C9.11722665,13.0007823 9.39876708,14.3972305 10.3168337,15.3364346 C10.8064692,15.8554684 10.6963012,15.9296161 9.85167994,15.6206674 C9.55789863,15.5218038 9.30083997,15.4476561 9.2763582,15.48473 C9.19067198,15.5712356 9.4844533,16.6958089 9.71703017,17.1406951 C10.0352933,17.7585925 10.6840603,18.364132 11.3940319,18.7225125 L11.9938354,19.0067453 L11.2838639,19.0191033 C10.5983741,19.0191033 10.5738924,19.0314612 10.6473377,19.2909781 C10.8921554,20.0942448 11.8591856,20.9469432 12.9363838,21.3176817 L13.6953189,21.5771986 L13.0343109,21.972653 C12.0550398,22.5411186 10.9043963,22.8624253 9.75375284,22.8871412 C9.20291287,22.8994991 8.75,22.9489309 8.75,22.9860048 C8.75,23.1095842 10.2433884,23.8016294 11.1124914,24.0735042 C13.7198006,24.8767709 16.8167454,24.5307483 19.1425141,23.159016 C20.7950341,22.1827381 22.447554,20.2425402 23.2187299,18.364132 C23.6349201,17.3631381 24.0511103,15.5341618 24.0511103,14.6567474 C24.0511103,14.0882818 24.087833,14.0141341 24.7733227,13.3344469 C25.177272,12.9389926 25.5567396,12.5064644 25.6301849,12.3828849 C25.7525938,12.1480838 25.7403529,12.1480838 25.1160676,12.358169 C24.0755921,12.7289074 23.9287014,12.6794756 24.4428188,12.1233679 C24.8222863,11.7279136 25.2751992,11.0111526 25.2751992,10.8010674 C25.2751992,10.7639936 25.0915858,10.8257833 24.8834907,10.9370049 C24.6631547,11.0605844 24.1735192,11.2459536 23.8062926,11.3571751 L23.1452846,11.5672603 L22.5454811,11.159448 C22.2149771,10.9370049 21.7498233,10.6898459 21.5050056,10.6156982 C20.8807203,10.4426869 19.925931,10.4674028 19.3628501,10.66513 C17.8327391,11.2212377 16.8657089,12.6547597 16.9758769,14.2242192 Z" id="Shape" fill="#FFFFFF"></path>
                </g>
            </g>
        </g>
    </g>
</svg>