<?xml version="1.0" encoding="UTF-8"?>
<svg width="35px" height="35px" viewBox="0 0 35 35" version="1.1" xmlns="http://www.w3.org/2000/svg" xmlns:xlink="http://www.w3.org/1999/xlink">
    <!-- Generator: Sketch 45.2 (43514) - http://www.bohemiancoding.com/sketch -->
    <title>atom / icons / icon-arrow-back</title>
    <desc>Created with Sketch.</desc>
    <defs></defs>
    <g id="Symbols" stroke="none" stroke-width="1" fill="none" fill-rule="evenodd">
        <g id="atom-/-icons-/-icon-arrow-back">
            <g id="icon-arrow-back">
                <rect id="Rectangle-path" x="0" y="0" width="35" height="35"></rect>
                <path d="M1.86328477,17.4618111 L8.04036511,11.2434109 C8.2685254,11.0137243 8.33586026,10.9459391 8.33586026,10.9459391 C8.55069116,10.7296711 8.55206942,10.3804189 8.33559096,10.1624924 C8.12061132,9.94607471 7.77273607,9.94539458 7.55647754,10.1630997 C7.55647754,10.1630997 7.53428675,10.185439 7.3282622,10.3928417 L0.161234724,17.6078111 C-0.0537449081,17.8242288 -0.0537449081,18.1751111 0.161234724,18.3915288 C0.161234724,18.3915288 4.97765287,23.2401651 7.38586193,25.6644833 C7.5726866,25.8525577 7.55800796,25.8377809 7.55800796,25.8377809 C7.77247558,26.0536831 8.11911256,26.0547741 8.33559096,25.8368476 C8.5505706,25.6204299 8.55231158,25.2713001 8.33738022,25.0549309 C8.33738022,25.0549309 8.31532562,25.0327288 8.11056538,24.8265989 L1.89569459,18.5701554 L18.4495102,18.5701554 C18.7535373,18.5701554 19,18.3220441 19,18.0159833 C19,17.7099225 18.7535373,17.4618111 18.4495102,17.4618111 L1.86328477,17.4618111 Z" id="Shape" fill="#7F8C8D" fill-rule="nonzero"></path>
            </g>
        </g>
    </g>
</svg>