<?xml version="1.0" encoding="UTF-8"?>
<svg width="43px" height="28px" viewBox="0 0 43 28" version="1.1" xmlns="http://www.w3.org/2000/svg" xmlns:xlink="http://www.w3.org/1999/xlink">
    <!-- Generator: Sketch 45.2 (43514) - http://www.bohemiancoding.com/sketch -->
    <title>atom / icons / icon-card-discover</title>
    <desc>Created with Sketch.</desc>
    <defs>
        <linearGradient x1="0%" y1="0%" x2="100%" y2="100%" id="linearGradient-1">
            <stop stop-color="#EDF1F3" offset="0%"></stop>
            <stop stop-color="#D3DADF" offset="100%"></stop>
        </linearGradient>
        <rect id="path-2" x="0" y="0" width="43" height="28" rx="2"></rect>
        <filter x="-1.2%" y="-1.8%" width="102.3%" height="103.6%" filterUnits="objectBoundingBox" id="filter-3">
            <feMorphology radius="1" operator="erode" in="SourceAlpha" result="shadowSpreadInner1"></feMorphology>
            <feOffset dx="0" dy="0" in="shadowSpreadInner1" result="shadowOffsetInner1"></feOffset>
            <feComposite in="shadowOffsetInner1" in2="SourceAlpha" operator="arithmetic" k2="-1" k3="1" result="shadowInnerInner1"></feComposite>
            <feColorMatrix values="0 0 0 0 0   0 0 0 0 0   0 0 0 0 0  0 0 0 0.1 0" type="matrix" in="shadowInnerInner1"></feColorMatrix>
        </filter>
        <linearGradient x1="76.1999203%" y1="89.0088942%" x2="17.2947092%" y2="18.9100988%" id="linearGradient-4">
            <stop stop-color="#FFA700" offset="0%"></stop>
            <stop stop-color="#E75A10" offset="100%"></stop>
        </linearGradient>
        <path d="M18.9330734,2.63337143 C18.9330734,4.08194286 17.7569188,5.25622857 16.3060421,5.25622857 C14.8551654,5.25622857 13.6792016,4.08194286 13.6792016,2.63337143 C13.6792016,1.1848 14.8551654,0.0107047619 16.3060421,0.0107047619 C17.7569188,0.0107047619 18.9330734,1.1848 18.9330734,2.63337143" id="path-5"></path>
        <filter x="-9.5%" y="-9.5%" width="119.0%" height="119.1%" filterUnits="objectBoundingBox" id="filter-6">
            <feOffset dx="1" dy="1" in="SourceAlpha" result="shadowOffsetInner1"></feOffset>
            <feComposite in="shadowOffsetInner1" in2="SourceAlpha" operator="arithmetic" k2="-1" k3="1" result="shadowInnerInner1"></feComposite>
            <feColorMatrix values="0 0 0 0 0.314067815   0 0 0 0 0.00146227912   0 0 0 0 0.00146227912  0 0 0 0.5 0" type="matrix" in="shadowInnerInner1"></feColorMatrix>
        </filter>
    </defs>
    <g id="Symbols" stroke="none" stroke-width="1" fill="none" fill-rule="evenodd">
        <g id="atom-/-icons-/-icon-card-discover">
            <g>
                <g id="JCB-card-Copy-2">
                    <g id="Amex-Copy">
                        <rect id="Rectangle-6" fill="url(#linearGradient-1)" x="0" y="0" width="43" height="28" rx="2"></rect>
                        <g id="Rectangle-6-Copy">
                            <use fill-opacity="0" fill="#E5E5E5" fill-rule="evenodd" xlink:href="#path-2"></use>
                            <use fill="black" fill-opacity="1" filter="url(#filter-3)" xlink:href="#path-2"></use>
                        </g>
                    </g>
                </g>
                <g id="Page-1" transform="translate(6.046875, 11.333333)">
                    <path d="M2.53910106,3.85491429 C2.23652506,4.12786667 1.84332888,4.24691429 1.22100673,4.24691429 L0.962500752,4.24691429 L0.962500752,0.986533333 L1.22100673,0.986533333 C1.84332888,0.986533333 2.22107193,1.09777143 2.53910106,1.38539048 C2.87220176,1.68139048 3.07252004,2.1404381 3.07252004,2.61262857 C3.07252004,3.0859619 2.87220176,3.55891429 2.53910106,3.85491429 M1.41388463,0.151295238 L1.90779321e-05,0.151295238 L1.90779321e-05,5.08139048 L1.40644423,5.08139048 C2.15429917,5.08139048 2.69439543,4.90539048 3.16829126,4.51224762 C3.7316626,4.04691429 4.06476329,3.34539048 4.06476329,2.61986667 C4.06476329,1.16481905 2.97598571,0.151295238 1.41388463,0.151295238" id="Fill-1" fill="#212D34"></path>
                    <polygon id="Fill-3" fill="#212D34" points="4.50792458 5.08152381 5.47116937 5.08152381 5.47116937 0.151238095 4.50792458 0.151238095"></polygon>
                    <path d="M7.8264164,2.0431619 C7.24835505,1.8296381 7.07875224,1.68887619 7.07875224,1.4224 C7.07875224,1.11192381 7.38113746,0.87592381 7.79627326,0.87592381 C8.0847316,0.87592381 8.32206107,0.9944 8.57293588,1.2751619 L9.07697485,0.616304762 C8.66279294,0.254590476 8.16733904,0.0698285714 7.62590733,0.0698285714 C6.75213804,0.0698285714 6.08574587,0.675542857 6.08574587,1.4824 C6.08574587,2.1616381 6.39595305,2.50944762 7.30062859,2.8344 C7.67779931,2.96735238 7.8697233,3.05573333 7.96644842,3.1151619 C8.15894475,3.24068571 8.25528831,3.4184 8.25528831,3.62544762 C8.25528831,4.02487619 7.93725918,4.32087619 7.50743337,4.32087619 C7.04803677,4.32087619 6.67792488,4.09135238 6.45623931,3.6631619 L5.83391717,4.26144762 C6.27766987,4.91192381 6.81070729,5.20011429 7.54368144,5.20011429 C8.54450976,5.20011429 9.24676844,4.53554286 9.24676844,3.58125714 C9.24676844,2.79782857 8.92206204,2.44335238 7.8264164,2.0431619" id="Fill-5" fill="#212D34"></path>
                    <path d="M9.55060359,2.61979048 C9.55060359,4.06893333 10.6903193,5.19255238 12.1570307,5.19255238 C12.5715941,5.19255238 12.9268252,5.11121905 13.3646638,4.90531429 L13.3646638,3.77331429 C12.9796711,4.15807619 12.6385577,4.31331429 12.2018638,4.31331429 C11.231751,4.31331429 10.5432284,3.61102857 10.5432284,2.61255238 C10.5432284,1.66607619 11.2534998,0.919409524 12.1570307,0.919409524 C12.6164273,0.919409524 12.964218,1.08302857 13.3646638,1.47407619 L13.3646638,0.342647619 C12.9418968,0.128552381 12.5942969,0.0397904762 12.1797334,0.0397904762 C10.7204624,0.0397904762 9.55060359,1.18626667 9.55060359,2.61979048" id="Fill-6" fill="#212D34"></path>
                    <polygon id="Fill-7" fill="#212D34" points="21.0018462 3.46289524 19.6850873 0.15127619 18.6327486 0.15127619 20.7282686 5.2080381 21.246616 5.2080381 23.3799104 0.15127619 22.3357752 0.15127619"></polygon>
                    <polygon id="Fill-8" fill="#212D34" points="23.8154596 5.08146667 26.5470379 5.08146667 26.5470379 4.2468 24.7779413 4.2468 24.7779413 2.91594286 26.4819822 2.91594286 26.4819822 2.08089524 24.7779413 2.08089524 24.7779413 0.986609524 26.5470379 0.986609524 26.5470379 0.151180952 23.8154596 0.151180952"></polygon>
                    <path d="M28.4284463,2.42104762 L28.1470468,2.42104762 L28.1470468,0.927904762 L28.4437087,0.927904762 C29.0437096,0.927904762 29.3697515,1.1787619 29.3697515,1.65857143 C29.3697515,2.15419048 29.0437096,2.42104762 28.4284463,2.42104762 M30.3608501,1.6067619 C30.3608501,0.683714286 29.7240287,0.151142857 28.6133115,0.151142857 L27.1849467,0.151142857 L27.1849467,5.08142857 L28.1470468,5.08142857 L28.1470468,3.10085714 L28.2727704,3.10085714 L29.6059363,5.08142857 L30.7904851,5.08142857 L29.2358244,3.00447619 C29.9613582,2.85704762 30.3608501,2.36161905 30.3608501,1.6067619" id="Fill-9" fill="#212D34"></path>
                    <g id="Fill-10">
                        <use fill="url(#linearGradient-4)" fill-rule="evenodd" xlink:href="#path-5"></use>
                        <use fill="black" fill-opacity="1" filter="url(#filter-6)" xlink:href="#path-5"></use>
                    </g>
                </g>
            </g>
        </g>
    </g>
</svg>