<?xml version="1.0" encoding="UTF-8"?>
<svg width="41px" height="41px" viewBox="0 0 41 41" version="1.1" xmlns="http://www.w3.org/2000/svg" xmlns:xlink="http://www.w3.org/1999/xlink">
    <!-- Generator: Sketch 45.2 (43514) - http://www.bohemiancoding.com/sketch -->
    <title>atom / icons / icon-socialorb-google+</title>
    <desc>Created with Sketch.</desc>
    <defs>
        <rect id="path-1" x="0" y="0" width="41" height="41"></rect>
    </defs>
    <g id="Symbols" stroke="none" stroke-width="1" fill="none" fill-rule="evenodd">
        <g id="atom-/-icons-/-icon-socialorb-google+">
            <g id="atom-/-icons-/-icon-google+">
                <g id="icon-container" opacity="0">
                    <use fill-opacity="0.3" fill="#0456FD" fill-rule="evenodd" xlink:href="#path-1"></use>
                    <rect stroke="#0456FD" stroke-width="1" x="0.5" y="0.5" width="40" height="40"></rect>
                </g>
                <g id="icon-google+" transform="translate(3.000000, 3.000000)">
                    <path d="M0,17.5 C0,7.8350164 7.8350164,0 17.5,0 C27.1649836,0 35,7.8350164 35,17.5 C35,27.1649836 27.1649836,35 17.5,35 C7.8350164,35 0,27.1649836 0,17.5 Z" id="back" fill="#DC4E41"></path>
                    <path d="M14.3181818,17 L19.5761364,17 C19.6238636,17.2770833 19.6636364,17.5541667 19.6636364,17.9183333 C19.6636364,21.085 17.5318182,23.3333333 14.3181818,23.3333333 C11.2397727,23.3333333 8.75,20.8554167 8.75,17.7916667 C8.75,14.7279167 11.2397727,12.25 14.3181818,12.25 C15.8215909,12.25 17.0784091,12.79625 18.0488636,13.69875 L16.5375,15.1475 C16.1238636,14.7516667 15.4,14.2925 14.3181818,14.2925 C12.4170455,14.2925 10.8659091,15.86 10.8659091,17.7916667 C10.8659091,19.7233333 12.4170455,21.2908333 14.3181818,21.2908333 C16.5215909,21.2908333 17.3488636,19.7154167 17.4761364,18.9 L14.3181818,18.9 L14.3181818,17 Z M26.25,17 L26.25,18.5833333 L24.6590909,18.5833333 L24.6590909,20.1666667 L23.0681818,20.1666667 L23.0681818,18.5833333 L21.4772727,18.5833333 L21.4772727,17 L23.0681818,17 L23.0681818,15.4166667 L24.6590909,15.4166667 L24.6590909,17 L26.25,17 Z" id="Combined-Shape" fill="#FFFFFF"></path>
                </g>
            </g>
        </g>
    </g>
</svg>