<?xml version="1.0" encoding="UTF-8"?>
<svg width="43px" height="28px" viewBox="0 0 43 28" version="1.1" xmlns="http://www.w3.org/2000/svg" xmlns:xlink="http://www.w3.org/1999/xlink">
    <!-- Generator: Sketch 45.2 (43514) - http://www.bohemiancoding.com/sketch -->
    <title>atom / icons / icon-card-visa</title>
    <desc>Created with Sketch.</desc>
    <defs>
        <rect id="path-1" x="0" y="0" width="43" height="28" rx="2"></rect>
        <filter x="-1.2%" y="-1.8%" width="102.3%" height="103.6%" filterUnits="objectBoundingBox" id="filter-2">
            <feMorphology radius="1" operator="erode" in="SourceAlpha" result="shadowSpreadInner1"></feMorphology>
            <feOffset dx="0" dy="0" in="shadowSpreadInner1" result="shadowOffsetInner1"></feOffset>
            <feComposite in="shadowOffsetInner1" in2="SourceAlpha" operator="arithmetic" k2="-1" k3="1" result="shadowInnerInner1"></feComposite>
            <feColorMatrix values="0 0 0 0 0   0 0 0 0 0   0 0 0 0 0  0 0 0 0.1 0" type="matrix" in="shadowInnerInner1"></feColorMatrix>
        </filter>
    </defs>
    <g id="Symbols" stroke="none" stroke-width="1" fill="none" fill-rule="evenodd">
        <g id="atom-/-icons-/-icon-card-visa">
            <g>
                <rect id="Rectangle-6" fill="#F4F6F7" x="0" y="0" width="43" height="28" rx="2"></rect>
                <path d="M2,0 L41,0 L41,0 C42.1045695,-2.02906125e-16 43,0.8954305 43,2 L43,6.66666667 L0,6.66666667 L0,2 L0,2 C-1.3527075e-16,0.8954305 0.8954305,2.02906125e-16 2,0 Z" id="Rectangle-6-Copy-2" fill="#4095DB"></path>
                <path d="M0,21.3333333 L43,21.3333333 L43,26 L43,26 C43,27.1045695 42.1045695,28 41,28 L2,28 L2,28 C0.8954305,28 1.3527075e-16,27.1045695 0,26 L0,21.3333333 Z" id="Rectangle-6-Copy-3" fill="#F4B662"></path>
                <g id="visa-logo" transform="translate(20.828125, 14.000000) scale(1, -1) translate(-20.828125, -14.000000) translate(8.734375, 10.000000)" fill="#0071CE">
                    <path d="M8.62099945,0.114911942 L10.5664504,0.114911942 L11.7833447,7.86494413 L9.83800503,7.86494413 L8.62099945,0.114911942 Z M17.622813,7.67472138 C17.2381734,7.83026453 16.633231,8 15.87964,8 C13.9563306,8 12.6024703,6.94816659 12.5912326,5.44217921 C12.5789936,4.32831166 13.5573379,3.70694021 14.2949069,3.33668112 C15.0529485,2.95715124 15.3076318,2.71427958 15.3046277,2.3749231 C15.2993982,1.85587364 14.699574,1.61803797 14.1402499,1.61803797 C13.361402,1.61803797 12.9476112,1.73512454 12.3078432,2.02446457 L12.0576105,2.14784612 L11.78557,0.413064938 C12.2391933,0.197204458 13.0801266,0.00984305478 13.9528814,0 C15.9969122,0 17.3250705,1.03901455 17.3406475,2.64720947 C17.3476571,3.5305664 16.8292782,4.20023749 15.7066245,4.75305092 C15.0268015,5.11232242 14.6095615,5.350387 14.6143458,5.71412221 C14.6147909,6.03631057 14.9668302,6.3810464 15.728766,6.3810464 C16.3650848,6.39157618 16.8257177,6.24084009 17.1846554,6.08335122 L17.3593399,5.99464927 L17.622813,7.67472138 Z M20.2131501,2.86261213 L21.828147,2.86261213 C21.7512636,3.25003934 21.3779728,5.09984692 21.3779728,5.09984692 L21.2466813,5.76825901 C21.1484352,5.47777444 20.9767549,5.00839807 20.9881038,5.02877091 C20.9881038,5.02877091 20.3743716,3.30806759 20.2131501,2.86261213 Z M4.8809715,3.64879752 L5.08491841,2.57476 L6.98897916,7.85842025 L9.05047847,7.85842025 L5.98693562,0.122923731 L3.92810664,0.121664735 L2.19814702,6.85298659 C1.6000475,7.21296621 0.917577688,7.50239517 0.154365709,7.703106 L0.18029022,7.86368514 L3.31737857,7.86368514 C3.73984796,7.84651702 4.08165096,7.70093137 4.199257,7.20980872 L4.8809715,3.64879752 Z M22.6131145,7.8570468 L21.1097154,7.8570468 C20.643408,7.8570468 20.2943728,7.71993076 20.0900921,7.21461579 L17.2011225,0.112165043 L19.2443745,0.112165043 C19.2443745,0.112165043 19.5777214,1.06762808 19.6533809,1.27730804 C19.8762427,1.27730804 21.8616374,1.27330214 22.1450268,1.27330214 C22.2033292,1.00284705 22.3819079,0.112165043 22.3819079,0.112165043 L24.1875,0.112165043 L22.6131145,7.8570468 Z" id="path14"></path>
                </g>
                <g id="Rectangle-6-Copy">
                    <use fill-opacity="0" fill="#E5E5E5" fill-rule="evenodd" xlink:href="#path-1"></use>
                    <use fill="black" fill-opacity="1" filter="url(#filter-2)" xlink:href="#path-1"></use>
                </g>
            </g>
        </g>
    </g>
</svg>