<?xml version="1.0" encoding="UTF-8"?>
<svg width="32px" height="32px" viewBox="0 0 32 32" version="1.1" xmlns="http://www.w3.org/2000/svg" xmlns:xlink="http://www.w3.org/1999/xlink">
    <!-- Generator: Sketch 45.2 (43514) - http://www.bohemiancoding.com/sketch -->
    <title>atom / icons / icon-lock</title>
    <desc>Created with Sketch.</desc>
    <defs></defs>
    <g id="Symbols" stroke="none" stroke-width="1" fill="none" fill-rule="evenodd">
        <g id="atom-/-icons-/-icon-lock">
            <g>
                <rect id="icon-container" stroke="#0456FD" stroke-width="0.5" fill-opacity="0.2" fill="#0456FD" opacity="0" x="0" y="0" width="32" height="32"></rect>
                <g id="icon-lock" transform="translate(7.000000, 4.000000)">
                    <path d="M0.75,10.0645161 L17.25,10.0645161 C17.6625,10.0645161 18,10.4129032 18,10.8387097 L18,19.3548387 C18,21.9096774 15.975,24 13.5,24 L4.5,24 C2.025,24 0,21.9096774 0,19.3548387 L0,10.8387097 C0,10.4129032 0.3375,10.0645161 0.75,10.0645161 Z M11.25,15.483871 C11.25,14.2064516 10.2375,13.1612903 9,13.1612903 C7.7625,13.1612903 6.75,14.2064516 6.75,15.483871 C6.75,16.1419355 7.0125,16.8 7.5,17.2258065 L7.5,19.3548387 C7.5,20.2064516 8.175,20.9032258 9,20.9032258 C9.825,20.9032258 10.5,20.2064516 10.5,19.3548387 L10.5,17.1870968 C10.9875,16.7612903 11.25,16.1419355 11.25,15.483871 Z" id="Shape" fill="#C1C6CB"></path>
                    <path d="M15,10.0645161 L15,6.19354839 C15,2.78709677 12.3,0 9,0 C5.7,0 3,2.78709677 3,6.19354839 L3,10.0645161" id="Shape" stroke="#C1C6CB" stroke-width="2.07692308"></path>
                </g>
            </g>
        </g>
    </g>
</svg>