<?xml version="1.0" encoding="UTF-8"?>
<svg width="41px" height="41px" viewBox="0 0 41 41" version="1.1" xmlns="http://www.w3.org/2000/svg" xmlns:xlink="http://www.w3.org/1999/xlink">
    <!-- Generator: Sketch 45.2 (43514) - http://www.bohemiancoding.com/sketch -->
    <title>atom / icons / icon-socialorb-youtube</title>
    <desc>Created with Sketch.</desc>
    <defs>
        <rect id="path-1" x="0" y="0" width="41" height="41"></rect>
    </defs>
    <g id="Symbols" stroke="none" stroke-width="1" fill="none" fill-rule="evenodd">
        <g id="atom-/-icons-/-icon-socialorb-youtube">
            <g id="atom-/-icons-/-icon-youtube">
                <g id="icon-container" opacity="0">
                    <use fill-opacity="0.3" fill="#0456FD" fill-rule="evenodd" xlink:href="#path-1"></use>
                    <rect stroke="#0456FD" stroke-width="1" x="0.5" y="0.5" width="40" height="40"></rect>
                </g>
                <g id="icon-youtube" transform="translate(3.000000, 3.000000)">
                    <path d="M0,17.5 C0,7.8350164 7.8350164,0 17.5,0 C27.1649836,0 35,7.8350164 35,17.5 C35,27.1649836 27.1649836,35 17.5,35 C7.8350164,35 0,27.1649836 0,17.5 Z" id="back" fill="#CE1312"></path>
                    <path d="M26.6466667,13.9774515 C26.6466667,13.9774515 26.4640833,12.6630271 25.9046667,12.0842034 C25.19475,11.3241621 24.3990833,11.3205854 24.0345,11.2764732 C21.4223333,11.0833333 17.5040833,11.0833333 17.5040833,11.0833333 L17.4959167,11.0833333 C17.4959167,11.0833333 13.5776667,11.0833333 10.9655,11.2764732 C10.6003333,11.3205854 9.80525,11.3241621 9.09475,12.0842034 C8.53533333,12.6630271 8.35333333,13.9774515 8.35333333,13.9774515 C8.35333333,13.9774515 8.16666667,15.5213785 8.16666667,17.0647095 L8.16666667,18.5120666 C8.16666667,20.0559937 8.35333333,21.5993247 8.35333333,21.5993247 C8.35333333,21.5993247 8.53533333,22.9137491 9.09475,23.4925727 C9.80525,24.252614 10.738,24.2287696 11.1533333,24.3080523 C12.6466667,24.4546956 17.5,24.5 17.5,24.5 C17.5,24.5 21.4223333,24.4940389 24.0345,24.300899 C24.3990833,24.2561907 25.19475,24.252614 25.9046667,23.4925727 C26.4640833,22.9137491 26.6466667,21.5993247 26.6466667,21.5993247 C26.6466667,21.5993247 26.8333333,20.0559937 26.8333333,18.5120666 L26.8333333,17.0647095 C26.8333333,15.5213785 26.6466667,13.9774515 26.6466667,13.9774515 L26.6466667,13.9774515 Z" id="Youtube" fill="#FFFFFF"></path>
                    <polygon id="Path" fill="#CE1312" points="15.5726667 20.2658247 15.5720833 14.9061921 20.6155833 17.5952481"></polygon>
                </g>
            </g>
        </g>
    </g>
</svg>