<?xml version="1.0" encoding="UTF-8"?>
<svg width="41px" height="41px" viewBox="0 0 41 41" version="1.1" xmlns="http://www.w3.org/2000/svg" xmlns:xlink="http://www.w3.org/1999/xlink">
    <!-- Generator: Sketch 45.2 (43514) - http://www.bohemiancoding.com/sketch -->
    <title>atom / icons / icon-socialorb-instagram</title>
    <desc>Created with Sketch.</desc>
    <defs>
        <rect id="path-1" x="0" y="0" width="41" height="41"></rect>
        <linearGradient x1="100%" y1="0%" x2="0%" y2="100%" id="linearGradient-2">
            <stop stop-color="#3147F2" offset="0%"></stop>
            <stop stop-color="#8935E5" offset="15.8601722%"></stop>
            <stop stop-color="#D522BD" offset="36.7047991%"></stop>
            <stop stop-color="#E1267B" offset="51.1419802%"></stop>
            <stop stop-color="#FD453D" offset="65.8761161%"></stop>
            <stop stop-color="#FCAB68" offset="84.2354911%"></stop>
            <stop stop-color="#FDE48C" offset="100%"></stop>
        </linearGradient>
        <path d="M0,17.5 C0,7.8350164 7.8350164,0 17.5,0 C27.1649836,0 35,7.8350164 35,17.5 C35,27.1649836 27.1649836,35 17.5,35 C7.8350164,35 0,27.1649836 0,17.5 Z" id="path-3"></path>
    </defs>
    <g id="Symbols" stroke="none" stroke-width="1" fill="none" fill-rule="evenodd">
        <g id="atom-/-icons-/-icon-socialorb-instagram">
            <g id="atom-/-icons-/-icon-instagram">
                <g id="icon-container" opacity="0">
                    <use fill-opacity="0.3" fill="#0456FD" fill-rule="evenodd" xlink:href="#path-1"></use>
                    <rect stroke="#0456FD" stroke-width="1" x="0.5" y="0.5" width="40" height="40"></rect>
                </g>
                <g id="icon-instagram" transform="translate(3.000000, 3.000000)">
                    <mask id="mask-4" fill="white">
                        <use xlink:href="#path-3"></use>
                    </mask>
                    <g id="back">
                        <use fill="#FFFFFF" xlink:href="#path-3"></use>
                        <use fill="url(#linearGradient-2)" xlink:href="#path-3"></use>
                    </g>
                    <path d="M17.500875,8.16666667 C14.9660708,8.16666667 14.6479564,8.17775012 13.6523905,8.22305614 C12.658769,8.26855662 11.9805397,8.42586381 11.3870891,8.65667177 C10.7732216,8.89506314 10.2524939,9.21395535 9.73371077,9.73293298 C9.21453869,10.2517162 8.89564648,10.7724438 8.65647732,11.3861169 C8.42508603,11.9797619 8.26758438,12.6581857 8.2228617,13.6514182 C8.17833345,14.6469842 8.16666667,14.965293 8.16666667,17.5000972 C8.16666667,20.0349014 8.17794456,20.3520436 8.22305614,21.3476095 C8.26875106,22.341231 8.42605826,23.0194603 8.65667177,23.6129109 C8.89525759,24.2267784 9.2141498,24.7475061 9.73312743,25.2662892 C10.2517162,25.7854613 10.7724438,26.1051313 11.3859224,26.3435227 C11.9797619,26.5743306 12.6581857,26.7316378 13.6516127,26.7771383 C14.6471786,26.8224443 14.9650986,26.8335278 17.4997083,26.8335278 C20.034707,26.8335278 20.3518492,26.8224443 21.3474151,26.7771383 C22.3410365,26.7316378 23.0200436,26.5743306 23.6138831,26.3435227 C24.2275562,26.1051313 24.7475061,25.7854613 25.2660948,25.2662892 C25.7852669,24.7475061 26.1041591,24.2267784 26.3433282,23.6131053 C26.5727751,23.0194603 26.7302767,22.3410365 26.7769439,21.347804 C26.8216665,20.352238 26.8333333,20.0349014 26.8333333,17.5000972 C26.8333333,14.965293 26.8216665,14.6471786 26.7769439,13.6516127 C26.7302767,12.6579912 26.5727751,11.9797619 26.3433282,11.3863113 C26.1041591,10.7724438 25.7852669,10.2517162 25.2660948,9.73293298 C24.7469227,9.21376091 24.2277506,8.8948687 23.6132998,8.65667177 C23.0182936,8.42586381 22.3396754,8.26855662 21.346054,8.22305614 C20.350488,8.17775012 20.0335403,8.16666667 17.4979583,8.16666667 L17.500875,8.16666667 Z M16.6635885,9.84862863 C16.9120911,9.84823974 17.1893718,9.84862863 17.500875,9.84862863 C19.992901,9.84862863 20.2882652,9.85757317 21.2723587,9.90229586 C22.1823682,9.9439074 22.6762623,10.0959645 23.0052657,10.2237159 C23.4408258,10.3928843 23.7513568,10.5951086 24.0778324,10.9217787 C24.4045025,11.2484488 24.6067268,11.5595631 24.7762841,11.9951232 C24.9040355,12.3237377 25.056287,12.8176318 25.0977041,13.7276413 C25.1424268,14.7115404 25.1521492,15.007099 25.1521492,17.4979583 C25.1521492,19.9888176 25.1424268,20.2843762 25.0977041,21.2682754 C25.0560926,22.1782848 24.9040355,22.6721789 24.7762841,23.0007934 C24.6071157,23.4363535 24.4045025,23.7464956 24.0778324,24.0729712 C23.7511623,24.3996413 23.4410202,24.6018656 23.0052657,24.7710341 C22.6766511,24.8993687 22.1823682,25.051037 21.2723587,25.0926485 C20.2884596,25.1373712 19.992901,25.1470935 17.500875,25.1470935 C15.0086546,25.1470935 14.7132904,25.1373712 13.7293913,25.0926485 C12.8193818,25.0506481 12.3254878,24.898591 11.9962899,24.7708396 C11.5607298,24.6016712 11.2496154,24.3994469 10.9229454,24.0727768 C10.5962753,23.7461067 10.394051,23.4357702 10.2244937,23.0000156 C10.0967423,22.6714011 9.94449074,22.1775071 9.90307364,21.2674976 C9.85835096,20.2835984 9.84940642,19.9880398 9.84940642,17.495625 C9.84940642,15.0032101 9.85835096,14.709207 9.90307364,13.7253079 C9.94468519,12.8152984 10.0967423,12.3214044 10.2244937,11.992401 C10.3936621,11.5568409 10.5962753,11.2457265 10.9229454,10.9190564 C11.2496154,10.5923864 11.5607298,10.3901621 11.9962899,10.2206047 C12.3252933,10.0922701 12.8193818,9.94060181 13.7293913,9.89879582 C14.5904002,9.85990653 14.9240704,9.84823974 16.6635885,9.84629527 L16.6635885,9.84862863 Z M22.4829825,11.398367 C21.8646427,11.398367 21.3629708,11.8994555 21.3629708,12.5179898 C21.3629708,13.1363295 21.8646427,13.6380014 22.4829825,13.6380014 C23.1013222,13.6380014 23.6029941,13.1363295 23.6029941,12.5179898 C23.6029941,11.89965 23.1013222,11.3979781 22.4829825,11.3979781 L22.4829825,11.398367 Z M17.500875,12.7069917 C14.8538752,12.7069917 12.7077695,14.8530974 12.7077695,17.5000972 C12.7077695,20.147097 14.8538752,22.2922305 17.500875,22.2922305 C20.1478748,22.2922305 22.2932027,20.147097 22.2932027,17.5000972 C22.2932027,14.8530974 20.1476804,12.7069917 17.5006806,12.7069917 L17.500875,12.7069917 Z M17.500875,14.3889537 C19.219004,14.3889537 20.6120185,15.7817738 20.6120185,17.5000972 C20.6120185,19.2182262 19.219004,20.6112407 17.500875,20.6112407 C15.7825516,20.6112407 14.3897315,19.2182262 14.3897315,17.5000972 C14.3897315,15.7817738 15.7825516,14.3889537 17.500875,14.3889537 L17.500875,14.3889537 Z" id="Shape" fill="#FFFFFF" mask="url(#mask-4)"></path>
                </g>
            </g>
        </g>
    </g>
</svg>