<?xml version="1.0" encoding="UTF-8"?>
<svg width="143px" height="143px" viewBox="0 0 143 143" version="1.1" xmlns="http://www.w3.org/2000/svg" xmlns:xlink="http://www.w3.org/1999/xlink">
    <!-- Generator: Sketch 45.2 (43514) - http://www.bohemiancoding.com/sketch -->
    <title>atom / icons / icon-thumbsup</title>
    <desc>Created with Sketch.</desc>
    <defs>
        <rect id="path-1" x="0" y="0" width="143" height="143"></rect>
    </defs>
    <g id="Symbols" stroke="none" stroke-width="1" fill="none" fill-rule="evenodd">
        <g id="atom-/-icons-/-icon-thumbsup">
            <g>
                <g id="icon-container" opacity="0">
                    <use fill-opacity="0.3" fill="#0456FD" fill-rule="evenodd" xlink:href="#path-1"></use>
                    <rect stroke="#0456FD" stroke-width="1" x="0.5" y="0.5" width="142" height="142"></rect>
                </g>
                <rect id="Rectangle-path" fill="#5DD6BF" fill-rule="nonzero" x="18.2105263" y="107.548444" width="7.10526316" height="7.11111111" rx="3.55263158"></rect>
                <path d="M39.5263158,125.333333 L39.5263158,125.333333 L39.5263158,125.333333 C39.5263158,123.369654 41.1181922,121.777778 43.0818713,121.777778 L48.5319392,121.777778 L48.5319392,121.777778 C49.3476033,121.777778 50.1437732,122.027138 50.8137088,122.492427 C63.7794082,131.497476 74.5069438,136 82.9963158,136 L106.365526,136 C111.595,136 116.113947,133.127111 118.572368,128.896 L136.321316,98.2897778 C137.991053,95.9644444 139,93.1271111 139,90.048 C139,85.6177778 136.925263,81.7066667 133.742105,79.1111111 L130.850263,76.2168889 C134.310526,73.6213333 136.584211,69.5253333 136.584211,64.8888889 C136.584211,57.0666667 130.189474,50.6666667 122.373684,50.6666667 L97.3986842,50.6666667 L102.429211,45.6391111 C111.985789,36.0746667 113.293158,21.4044444 106.393947,10.4177778 C105.619474,9.09511111 103.928421,8 101.995789,8 C100.674211,8 99.3526316,8.50488889 98.3436842,9.51466667 L49.6655263,58.2328889 L45.6584839,63.3593404 L45.6584839,63.3593404 C44.9003985,64.3292048 43.7379711,64.896 42.5069836,64.896 L41.9918421,64.896 L41.9918421,64.896 C40.6301695,64.896 39.5263158,63.7921463 39.5263158,62.4304737 L39.5263158,61.3368889 L39.5263158,61.3368889 C39.5263158,59.3712461 37.9328475,57.7777778 35.9672047,57.7777778 L12,57.7777778 L12,57.7777778 C7.581722,57.7777778 4,61.3594998 4,65.7777778 L4,120.889999 L3.99974994,120.889999 C3.99974994,125.308277 7.58147194,128.889999 11.9997499,128.889999 C11.9998333,128.889999 11.9999166,128.889999 12,128.889999 L35.9707602,128.889 L35.9707602,128.889 C37.9344573,128.888939 39.5263158,127.29703 39.5263158,125.333333 Z M48.885298,71.0829708 C51.0913357,67.6578771 53.085096,65.0124423 54.8665789,63.1466667 C56.1116081,61.8318966 70.6880321,47.2212407 98.5958509,19.314699 L98.5958507,19.3146988 C99.3769173,18.533668 100.643247,18.533697 101.424278,19.3147635 C101.762478,19.6529785 101.968272,20.1011969 102.004338,20.5781323 C102.727844,30.1455782 101.194994,36.8233859 97.4057895,40.6115556 C91.4586842,46.5564444 91.8281579,46.1866667 86.3002632,51.712 C85.2842105,52.7288889 84.9786842,54.2577778 85.5257895,55.5875556 C86.0728947,56.9173333 87.3731579,57.7777778 88.8084211,57.7777778 C100.176842,57.7777778 110.756579,57.7777778 122.373684,57.7777778 C126.288684,57.7777778 129.478947,60.9706667 129.478947,64.8888889 C129.478947,67.0933333 128.427368,69.1484444 126.587105,70.528 L123.304474,72.9884444 C122.480263,73.6071111 121.968684,74.5528889 121.890526,75.5768889 C121.819474,76.608 122.196053,77.6106667 122.920789,78.3431111 L125.819737,81.2444444 C128.377632,83.8044444 131.887632,86.5208889 131.887632,90.048 C131.887632,91.7973333 131.297895,93.0844444 130.345789,94.4213333 L130.175263,94.72 L112.426316,125.319111 C111.133158,127.559111 108.866579,128.888889 106.365526,128.888889 L82.9963158,128.888889 C70.3631579,128.888889 61.8013158,123.776 53.7226316,115.591111 C53.14,115.000889 52.3442105,114.666667 51.5128947,114.666667 C48.8507018,114.666667 46.1885088,114.666667 43.5263158,114.666667 L43.5263158,114.666667 C41.3171768,114.666667 39.5263158,112.875806 39.5263158,110.666667 L39.5263158,76 L39.5263158,76 C39.5263158,73.790861 41.3171768,72 43.5263158,72 L47.2038777,72 L47.2038777,72 C47.8837907,72 48.5171351,71.6545806 48.885298,71.0829708 Z M15.1052632,64.8817778 L28.4210526,64.8817778 L28.4210526,64.8817778 C30.6301916,64.8817778 32.4210526,66.6726388 32.4210526,68.8817778 L32.4210526,117.770667 L32.4210526,117.770667 C32.4210526,119.979806 30.6301916,121.770667 28.4210526,121.770667 L15.1052632,121.770667 L15.1052632,121.770667 C12.8961242,121.770667 11.1052632,119.979806 11.1052632,117.770667 L11.1052632,68.8817778 L11.1052632,68.8817778 C11.1052632,66.6726388 12.8961242,64.8817778 15.1052632,64.8817778 Z" id="Shape" fill="#5DD6BF" fill-rule="nonzero"></path>
            </g>
        </g>
    </g>
</svg>