<?xml version="1.0" encoding="UTF-8"?>
<svg width="35px" height="35px" viewBox="0 0 35 35" version="1.1" xmlns="http://www.w3.org/2000/svg" xmlns:xlink="http://www.w3.org/1999/xlink">
    <!-- Generator: Sketch 45.2 (43514) - http://www.bohemiancoding.com/sketch -->
    <title>atom / icons / icon-play</title>
    <desc>Created with Sketch.</desc>
    <defs></defs>
    <g id="Symbols" stroke="none" stroke-width="1" fill="none" fill-rule="evenodd">
        <g id="atom-/-icons-/-icon-play">
            <g id="icon-play">
                <rect id="Rectangle-path" x="0" y="0" width="35" height="35"></rect>
                <path d="M17.5,34.2708333 C8.23772454,34.2708333 0.729166667,26.7622755 0.729166667,17.5 C0.729166667,8.23772454 8.23772454,0.729166667 17.5,0.729166667 C26.7622755,0.729166667 34.2708333,8.23772454 34.2708333,17.5 C34.2708333,26.7622755 26.7622755,34.2708333 17.5,34.2708333 Z M17.5,32.8125 C25.9568602,32.8125 32.8125,25.9568602 32.8125,17.5 C32.8125,9.0431398 25.9568602,2.1875 17.5,2.1875 C9.0431398,2.1875 2.1875,9.0431398 2.1875,17.5 C2.1875,25.9568602 9.0431398,32.8125 17.5,32.8125 Z M24.0886794,18.7311756 L15.1648702,23.9600253 C13.9829209,24.652581 12.8103754,23.982111 12.8103754,22.6073737 L12.8103754,12.1240237 C12.8103754,10.7561013 13.987744,10.0816424 15.1648702,10.7713721 L24.0886794,16.0002218 C25.2626271,16.688089 25.2597476,18.0449956 24.0886794,18.7311756 Z M14.4276091,12.0296178 C14.2225565,11.9094684 14.2687087,11.88303 14.2687087,12.1240237 L14.2687087,22.6073737 C14.2687087,22.8545418 14.2171817,22.8250783 14.4276091,22.7017796 L23.3514183,17.4729299 C23.5625289,17.3492309 23.5624592,17.3821255 23.3514183,17.2584675 L14.4276091,12.0296178 Z" id="Shape" fill="#FFFFFF" fill-rule="nonzero"></path>
            </g>
        </g>
    </g>
</svg>