<?xml version="1.0" encoding="UTF-8"?>
<svg width="41px" height="41px" viewBox="0 0 41 41" version="1.1" xmlns="http://www.w3.org/2000/svg" xmlns:xlink="http://www.w3.org/1999/xlink">
    <!-- Generator: Sketch 45.2 (43514) - http://www.bohemiancoding.com/sketch -->
    <title>atom / icons / icon-socialorb-linkedIn</title>
    <desc>Created with Sketch.</desc>
    <defs>
        <rect id="path-1" x="0" y="0" width="41" height="41"></rect>
    </defs>
    <g id="Symbols" stroke="none" stroke-width="1" fill="none" fill-rule="evenodd">
        <g id="atom-/-icons-/-icon-socialorb-linkedIn">
            <g id="atom-/-icons-/-icon-linkedIN">
                <g id="icon-container" opacity="0">
                    <use fill-opacity="0.3" fill="#0456FD" fill-rule="evenodd" xlink:href="#path-1"></use>
                    <rect stroke="#0456FD" stroke-width="1" x="0.5" y="0.5" width="40" height="40"></rect>
                </g>
                <g id="icon-linkedin" transform="translate(3.000000, 3.000000)">
                    <path d="M0,17.5 C0,7.8350164 7.8350164,0 17.5,0 C27.1649836,0 35,7.8350164 35,17.5 C35,27.1649836 27.1649836,35 17.5,35 C7.8350164,35 0,27.1649836 0,17.5 Z" id="back" fill="#0077B5"></path>
                    <path d="M12.3670619,14.4942644 L12.3670619,26.4100957 L8.40117916,26.4100957 L8.40117916,14.4942644 L12.3670619,14.4942644 Z M12.6282649,10.8082171 C12.6282649,11.9523564 11.7670393,12.8678577 10.3841997,12.8678577 L10.3588556,12.8678577 C9.02741702,12.8678577 8.16666667,11.9523564 8.16666667,10.8082171 C8.16666667,9.63987737 9.05363236,8.75 10.4103359,8.75 C11.7670393,8.75 12.6025248,9.63987737 12.6282649,10.8082171 Z M26.669552,19.5779222 L26.6693936,26.4100957 L22.7036693,26.4100957 L22.7036693,20.0351192 C22.7036693,18.4338619 22.1297829,17.3412077 20.6941166,17.3412077 C19.5984578,17.3412077 18.9458462,18.0778161 18.6592198,18.7892751 C18.5543584,19.0442488 18.5286183,19.3995038 18.5286183,19.7556287 L18.5286183,26.410412 L14.5622604,26.410412 C14.5622604,26.410412 14.6145327,15.6127007 14.5622604,14.4945807 L18.5286183,14.4945807 L18.5286183,16.1823583 C19.0549844,15.3710135 19.9977072,14.2144576 22.10333,14.2144576 C24.7130636,14.2144576 26.669552,15.9178942 26.669552,19.5779222 Z" id="Shape" fill="#FFFFFF"></path>
                </g>
            </g>
        </g>
    </g>
</svg>