<?xml version="1.0" encoding="UTF-8"?>
<svg width="75px" height="53px" viewBox="0 0 75 53" version="1.1" xmlns="http://www.w3.org/2000/svg" xmlns:xlink="http://www.w3.org/1999/xlink">
    <!-- Generator: Sketch 45.2 (43514) - http://www.bohemiancoding.com/sketch -->
    <title>atom / icons / logotype-downy</title>
    <desc>Created with Sketch.</desc>
    <defs>
        <rect id="path-1" x="11" y="5" width="75" height="47"></rect>
    </defs>
    <g id="Symbols" stroke="none" stroke-width="1" fill="none" fill-rule="evenodd">
        <g id="atom-/-icons-/-logotype-downy">
            <g id="logotype-ghost" transform="translate(-11.000000, 0.000000)">
                <g id="container" opacity="0">
                    <use fill-opacity="0.2" fill="#0456FD" fill-rule="evenodd" xlink:href="#path-1"></use>
                    <rect stroke="#0456FD" stroke-width="0.5" x="10.75" y="4.75" width="75.5" height="47.5"></rect>
                </g>
                <path d="M66.8220296,16.7292653 L66.8220296,41.272437 L68.7698104,41.272437 L68.7698104,16.7292653 L66.8220296,16.7292653 Z M67.9420035,9.20008511 C68.5750323,9.20008511 69.0619775,8.71117731 69.0619775,8.12448795 C69.0619775,7.4889078 68.5750323,7 67.9420035,7 C67.3576693,7 66.8220296,7.4889078 66.8220296,8.12448795 C66.8220296,8.71117731 67.3576693,9.20008511 67.9420035,9.20008511 Z M84.6929182,16.6314837 C82.4042758,16.8759376 80.3104115,17.6581901 78.6061033,19.2226951 C77.0965732,20.6405277 76.0739883,22.351705 76.0739883,22.351705 L76.0739883,16.6314837 L74.4183746,16.6314837 L74.4183746,41.1746554 L76.0739883,41.1746554 L76.0739883,27.0452199 C76.9504896,22.5961589 80.3104115,18.7826781 84.6929182,18.3915518 L84.6929182,16.6314837 Z" id="pair" stroke="#63DBC1" stroke-width="2" fill="#63DBC1"></path>
                <path d="M9.45732941,33.9301176 C10.1077669,35.1378937 19.3653766,47.5111751 22.3778483,51.7673859 L24.5525045,51.5388203 L16.3429697,40.1720041 C20.2091415,41.0949653 21.2336369,40.8809416 21.8549672,40.8156371 C28.6896009,40.0972882 33.6680113,33.6718895 32.9217865,26.5720345 C32.1645065,19.3669965 25.9589708,14.117078 19.1243371,14.8354269 C12.2897034,15.5537759 7.31129302,21.9791745 8.06857303,29.1842125 C8.22887318,30.7093666 8.65358856,32.2599019 9.45732941,33.9301176 Z M21.4431483,16.6320255 C15.8511753,16.0442855 10.3554114,20.5180441 9.73632121,26.4082942 C9.1006482,32.4563189 13.2928097,37.895147 19.1436703,38.5100972 C24.994531,39.1250475 30.2258796,34.6766702 30.8615526,28.6286455 C31.4916981,22.6332124 27.294009,17.2469758 21.4431483,16.6320255 Z" id="Combined-Shape" stroke="#63DBC1" stroke-width="2.13834057" fill="#63DBC1" transform="translate(20.494140, 33.268532) rotate(30.000000) translate(-20.494140, -33.268532) "></path>
                <g id="pear" transform="translate(53.332968, 23.167945) rotate(20.000000) translate(-53.332968, -23.167945) translate(42.332968, 2.667945)" fill="#63DBC1">
                    <path d="M18.052217,37.7927275 L18.052217,36.4270132 L19.3475266,36.4270132 C18.9554166,36.9188739 18.5218726,37.375896 18.052217,37.7927275 L3.67838066,37.7927275 C3.20872506,37.375896 2.77518104,36.9188739 2.38307112,36.4270132 L3.67838066,36.4270132 L3.67838066,37.7927275 L4.89048753,36.4270132 L16.8401102,36.4270132 L18.052217,37.7927275 Z M2.38307112,36.4270132 L19.3475266,36.4270132 C18.9554166,36.9188739 18.5218726,37.375896 18.052217,37.7927275 L3.67838066,37.7927275 C3.20872506,37.375896 2.77518104,36.9188739 2.38307112,36.4270132 Z M10.8652988,40.5241561 C8.95538131,40.5241561 7.16056143,40.0286244 5.60105181,39.1584418 L16.1295459,39.1584418 C14.5700362,40.0286244 12.7752164,40.5241561 10.8652988,40.5241561 Z M18.344381,32.0612989 C18.5985332,31.2767335 18.7305977,30.4486043 18.7305977,29.5984417 C18.7305977,27.0135332 17.4976028,24.6434275 15.4548676,23.1610065 L14.5777965,22.5245126 L14.3099606,21.474445 C14.2910092,21.4001447 14.2655233,21.3264232 14.2332335,21.2533892 L13.9770294,20.6739 L13.9770294,17.9558864 C13.9770294,16.2373251 12.5838602,14.8441558 10.8652988,14.8441558 C9.14673749,14.8441558 7.75356824,16.2373251 7.75356824,17.9558864 L7.75356824,20.6739 L7.49736418,21.2533892 C7.46627434,21.323709 7.44116304,21.3964519 7.42226165,21.47087 L7.15502379,22.5230329 L6.2763654,23.1605455 C4.23326354,24.6429228 3,27.013255 3,29.5984417 C3,30.4486043 3.13206446,31.2767335 3.38621663,32.0612989 L18.344381,32.0612989 Z M0,29.5984417 C0,25.9484468 1.7799274,22.7164879 4.51458377,20.7323517 C4.57461228,20.4960088 4.65445072,20.2644872 4.75356824,20.0403006 L4.75356824,17.9558864 C4.75356824,14.5804708 7.48988324,11.8441558 10.8652988,11.8441558 C14.2407144,11.8441558 16.9770294,14.5804708 16.9770294,17.9558864 L16.9770294,20.0403006 C17.0776792,20.2679528 17.1573537,20.4995701 17.2168904,20.7329877 C19.9510506,22.7171785 21.7305977,25.9488368 21.7305977,29.5984417 C21.7305977,31.5884904 21.2014887,33.4542718 20.2770141,35.0612989 L1.45358353,35.0612989 C0.529109011,33.4542718 0,31.5884904 0,29.5984417 Z" id="body" fill-rule="nonzero"></path>
                    <g id="leaves" transform="translate(13.806545, 7.068197) rotate(45.000000) translate(-13.806545, -7.068197) translate(8.806545, 2.568197)">
                        <path d="M7.59735509,0.593975128 L8.77963177,4.62742468 L6.0312285,4.62742468 L7.21350518,0.593975128 C7.24457487,0.487977903 7.35568957,0.427237138 7.46168679,0.458306833 C7.52706517,0.477470413 7.57819151,0.528596751 7.59735509,0.593975128 Z M7.59735509,8.66087423 L7.59735509,8.66087423 C7.57819151,8.72625261 7.52706517,8.77737895 7.46168679,8.79654253 C7.35568957,8.82761222 7.24457487,8.76687146 7.21350518,8.66087423 L7.21350518,8.66087423 L6.0312285,4.62742468 L8.77963177,4.62742468 L7.59735509,8.66087423 Z" id="Triangle-Copy" transform="translate(7.405430, 3.622065) rotate(20.000000) translate(-7.405430, -3.622065) "></path>
                        <path d="M3.12305091,4.33607138 L3.80612595,6.66644698 L2.05612595,6.66644698 L2.739201,4.33607138 L2.739201,4.33607138 C2.77027069,4.23007416 2.88138539,4.16933339 2.98738261,4.20040309 C3.05276099,4.21956667 3.10388733,4.27069301 3.12305091,4.33607138 L3.12305091,4.33607138 Z M3.12305091,8.99682259 L3.12305091,8.99682259 C3.10388733,9.06220096 3.05276099,9.1133273 2.98738261,9.13249088 C2.88138539,9.16356058 2.77027069,9.10281981 2.739201,8.99682259 L2.05612595,6.66644698 L3.80612595,6.66644698 L3.12305091,8.99682259 Z" id="Triangle-Copy-2" transform="translate(2.931126, 6.026301) rotate(-40.000000) translate(-2.931126, -6.026301) "></path>
                    </g>
                </g>
            </g>
        </g>
    </g>
</svg>