<?xml version="1.0" encoding="UTF-8"?>
<svg width="25px" height="25px" viewBox="0 0 25 25" version="1.1" xmlns="http://www.w3.org/2000/svg" xmlns:xlink="http://www.w3.org/1999/xlink">
    <!-- Generator: Sketch 45.2 (43514) - http://www.bohemiancoding.com/sketch -->
    <title>atom / icons / sound-off</title>
    <desc>Created with Sketch.</desc>
    <defs></defs>
    <g id="Symbols" stroke="none" stroke-width="1" fill="none" fill-rule="evenodd">
        <g id="atom-/-icons-/-sound-off">
            <g id="sound-off">
                <rect id="Rectangle-path" x="0" y="0" width="25" height="25"></rect>
                <path d="M21.0490696,12.5 L23.6281568,9.92091281 C23.8309508,9.7181188 23.8318792,9.39025312 23.627063,9.18543698 L23.627063,9.18543698 C23.4236649,8.98203891 23.0919319,8.98399854 22.8915872,9.18434323 L20.3125,11.7634304 L17.7334128,9.18434323 C17.5306188,8.98154922 17.2027531,8.98062083 16.997937,9.18543698 L16.997937,9.18543698 C16.7945389,9.38883505 16.7964985,9.72056812 16.9968432,9.92091281 L19.5759304,12.5 L16.9968432,15.0790872 C16.7940492,15.2818812 16.7931208,15.6097469 16.997937,15.814563 L16.997937,15.814563 C17.2013351,16.0179611 17.5330681,16.0160015 17.7334128,15.8156568 L20.3125,13.2365696 L22.8915872,15.8156568 C23.0943812,16.0184508 23.4222469,16.0193792 23.627063,15.814563 L23.627063,15.814563 C23.8304611,15.6111649 23.8285015,15.2794319 23.6281568,15.0790872 L21.0490696,12.5 Z M6.61313771,7.8125 L14.294427,2.69164047 C14.6405492,2.4608923 15.1041667,2.70901282 15.1041667,3.125 L15.1041667,21.875 C15.1041667,22.2909872 14.6405492,22.5391077 14.294427,22.3083595 L6.61313771,17.1875 L2.60860948,17.1875 C1.7442962,17.1875 1.04166667,16.4895113 1.04166667,15.6280936 L1.04166667,9.37190641 C1.04166667,8.51019641 1.74507861,7.8125 2.60860948,7.8125 L6.61313771,7.8125 Z M7.05973969,8.76669286 C6.9741837,8.82373021 6.87365885,8.85416667 6.77083333,8.85416667 L2.60860948,8.85416667 C2.31848138,8.85416667 2.08333333,9.08740401 2.08333333,9.37190641 L2.08333333,15.6280936 C2.08333333,15.9126638 2.31805321,16.1458333 2.60860948,16.1458333 L6.77083333,16.1458333 C6.87365885,16.1458333 6.9741837,16.1762698 7.05973969,16.2333071 L14.0625,20.901814 L14.0625,4.09818598 L7.05973969,8.76669286 Z" id="Shape" fill="#FFFFFF" fill-rule="nonzero"></path>
            </g>
        </g>
    </g>
</svg>